{
    "asset" : {
        "generator" : "Khronos glTF Blender I/O v1.7.33",
        "version" : "2.0"
    },
    "scene" : 0,
    "scenes" : [
        {
            "name" : "Scene",
            "nodes" : [
                13
            ]
        }
    ],
    "nodes" : [
        {
            "mesh" : 0,
            "name" : "Old House_Old_House_0"
        },
        {
            "mesh" : 1,
            "name" : "Old House_Old_House_0.001"
        },
        {
            "mesh" : 2,
            "name" : "Old House_Old_House_0.002"
        },
        {
            "mesh" : 3,
            "name" : "Old House_Old_House_0.003"
        },
        {
            "mesh" : 4,
            "name" : "Old House_Old_House_0.004"
        },
        {
            "mesh" : 5,
            "name" : "Old House_Old_House_0.005"
        },
        {
            "mesh" : 6,
            "name" : "Old House_Old_House_0.006"
        },
        {
            "mesh" : 7,
            "name" : "Old House_Old_House_0.007"
        },
        {
            "mesh" : 8,
            "name" : "Old House_Old_House_0.008"
        },
        {
            "mesh" : 9,
            "name" : "Old House_Old_House_0.009"
        },
        {
            "children" : [
                0,
                1,
                2,
                3,
                4,
                5,
                6,
                7,
                8,
                9
            ],
            "name" : "Old House"
        },
        {
            "children" : [
                10
            ],
            "name" : "RootNode"
        },
        {
            "children" : [
                11
            ],
            "name" : "House ruin.fbx"
        },
        {
            "children" : [
                12
            ],
            "name" : "Sketchfab_model"
        }
    ],
    "materials" : [
        {
            "doubleSided" : true,
            "name" : "Old_House.001",
            "normalTexture" : {
                "index" : 0
            },
            "pbrMetallicRoughness" : {
                "baseColorTexture" : {
                    "index" : 1
                },
                "metallicFactor" : 0
            }
        }
    ],
    "meshes" : [
        {
            "name" : "Old House_Old_House_0.010",
            "primitives" : [
                {
                    "attributes" : {
                        "POSITION" : 0,
                        "NORMAL" : 1,
                        "TEXCOORD_0" : 2,
                        "TEXCOORD_1" : 3
                    },
                    "indices" : 4,
                    "material" : 0
                }
            ]
        },
        {
            "name" : "Old House_Old_House_0.011",
            "primitives" : [
                {
                    "attributes" : {
                        "POSITION" : 5,
                        "NORMAL" : 6,
                        "TEXCOORD_0" : 7,
                        "TEXCOORD_1" : 8
                    },
                    "indices" : 9,
                    "material" : 0
                }
            ]
        },
        {
            "name" : "Old House_Old_House_0.012",
            "primitives" : [
                {
                    "attributes" : {
                        "POSITION" : 10,
                        "NORMAL" : 11,
                        "TEXCOORD_0" : 12,
                        "TEXCOORD_1" : 13
                    },
                    "indices" : 14,
                    "material" : 0
                }
            ]
        },
        {
            "name" : "Old House_Old_House_0.013",
            "primitives" : [
                {
                    "attributes" : {
                        "POSITION" : 15,
                        "NORMAL" : 16,
                        "TEXCOORD_0" : 17,
                        "TEXCOORD_1" : 18
                    },
                    "indices" : 19,
                    "material" : 0
                }
            ]
        },
        {
            "name" : "Old House_Old_House_0.014",
            "primitives" : [
                {
                    "attributes" : {
                        "POSITION" : 20,
                        "NORMAL" : 21,
                        "TEXCOORD_0" : 22,
                        "TEXCOORD_1" : 23
                    },
                    "indices" : 24,
                    "material" : 0
                }
            ]
        },
        {
            "name" : "Old House_Old_House_0.015",
            "primitives" : [
                {
                    "attributes" : {
                        "POSITION" : 25,
                        "NORMAL" : 26,
                        "TEXCOORD_0" : 27,
                        "TEXCOORD_1" : 28
                    },
                    "indices" : 29,
                    "material" : 0
                }
            ]
        },
        {
            "name" : "Old House_Old_House_0.016",
            "primitives" : [
                {
                    "attributes" : {
                        "POSITION" : 30,
                        "NORMAL" : 31,
                        "TEXCOORD_0" : 32,
                        "TEXCOORD_1" : 33
                    },
                    "indices" : 34,
                    "material" : 0
                }
            ]
        },
        {
            "name" : "Old House_Old_House_0.017",
            "primitives" : [
                {
                    "attributes" : {
                        "POSITION" : 35,
                        "NORMAL" : 36,
                        "TEXCOORD_0" : 37,
                        "TEXCOORD_1" : 38
                    },
                    "indices" : 39,
                    "material" : 0
                }
            ]
        },
        {
            "name" : "Old House_Old_House_0.018",
            "primitives" : [
                {
                    "attributes" : {
                        "POSITION" : 40,
                        "NORMAL" : 41,
                        "TEXCOORD_0" : 42,
                        "TEXCOORD_1" : 43
                    },
                    "indices" : 44,
                    "material" : 0
                }
            ]
        },
        {
            "name" : "Old House_Old_House_0.019",
            "primitives" : [
                {
                    "attributes" : {
                        "POSITION" : 45,
                        "NORMAL" : 46,
                        "TEXCOORD_0" : 47,
                        "TEXCOORD_1" : 48
                    },
                    "indices" : 49,
                    "material" : 0
                }
            ]
        }
    ],
    "textures" : [
        {
            "sampler" : 0,
            "source" : 0
        },
        {
            "sampler" : 0,
            "source" : 1
        }
    ],
    "images" : [
        {
            "mimeType" : "image/png",
            "name" : "Old_House_normal.png",
            "uri" : "textures/Old_House_normal.png"
        },
        {
            "mimeType" : "image/jpeg",
            "name" : "Old_House_baseColor.jpeg",
            "uri" : "textures/Old_House_baseColor.jpeg"
        }
    ],
    "accessors" : [
        {
            "bufferView" : 0,
            "componentType" : 5126,
            "count" : 17852,
            "max" : [
                7.986580848693848,
                8.231618881225586,
                4.606661319732666
            ],
            "min" : [
                1.0353716611862183,
                -0.18167302012443542,
                -3.5785024166107178
            ],
            "type" : "VEC3"
        },
        {
            "bufferView" : 1,
            "componentType" : 5126,
            "count" : 17852,
            "type" : "VEC3"
        },
        {
            "bufferView" : 2,
            "componentType" : 5126,
            "count" : 17852,
            "type" : "VEC2"
        },
        {
            "bufferView" : 3,
            "componentType" : 5126,
            "count" : 17852,
            "type" : "VEC2"
        },
        {
            "bufferView" : 4,
            "componentType" : 5123,
            "count" : 75888,
            "type" : "SCALAR"
        },
        {
            "bufferView" : 5,
            "componentType" : 5126,
            "count" : 16869,
            "max" : [
                7.891321659088135,
                8.64499282836914,
                6.379777908325195
            ],
            "min" : [
                -3.3600804805755615,
                -0.1857299506664276,
                -2.6589090824127197
            ],
            "type" : "VEC3"
        },
        {
            "bufferView" : 6,
            "componentType" : 5126,
            "count" : 16869,
            "type" : "VEC3"
        },
        {
            "bufferView" : 7,
            "componentType" : 5126,
            "count" : 16869,
            "type" : "VEC2"
        },
        {
            "bufferView" : 8,
            "componentType" : 5126,
            "count" : 16869,
            "type" : "VEC2"
        },
        {
            "bufferView" : 9,
            "componentType" : 5123,
            "count" : 67605,
            "type" : "SCALAR"
        },
        {
            "bufferView" : 10,
            "componentType" : 5126,
            "count" : 17467,
            "max" : [
                7.924430847167969,
                8.259062767028809,
                6.451637268066406
            ],
            "min" : [
                -1.8976982831954956,
                -0.18167302012443542,
                -8.384912490844727
            ],
            "type" : "VEC3"
        },
        {
            "bufferView" : 11,
            "componentType" : 5126,
            "count" : 17467,
            "type" : "VEC3"
        },
        {
            "bufferView" : 12,
            "componentType" : 5126,
            "count" : 17467,
            "type" : "VEC2"
        },
        {
            "bufferView" : 13,
            "componentType" : 5126,
            "count" : 17467,
            "type" : "VEC2"
        },
        {
            "bufferView" : 14,
            "componentType" : 5123,
            "count" : 71022,
            "type" : "SCALAR"
        },
        {
            "bufferView" : 15,
            "componentType" : 5126,
            "count" : 17181,
            "max" : [
                4.7529120445251465,
                8.695305824279785,
                6.504326820373535
            ],
            "min" : [
                -6.767519950866699,
                -0.16936299204826355,
                -7.546203136444092
            ],
            "type" : "VEC3"
        },
        {
            "bufferView" : 16,
            "componentType" : 5126,
            "count" : 17181,
            "type" : "VEC3"
        },
        {
            "bufferView" : 17,
            "componentType" : 5126,
            "count" : 17181,
            "type" : "VEC2"
        },
        {
            "bufferView" : 18,
            "componentType" : 5126,
            "count" : 17181,
            "type" : "VEC2"
        },
        {
            "bufferView" : 19,
            "componentType" : 5123,
            "count" : 66639,
            "type" : "SCALAR"
        },
        {
            "bufferView" : 20,
            "componentType" : 5126,
            "count" : 16541,
            "max" : [
                -0.6473608016967773,
                6.558058738708496,
                7.230717658996582
            ],
            "min" : [
                -8.01419734954834,
                -0.18984457850456238,
                -3.7801918983459473
            ],
            "type" : "VEC3"
        },
        {
            "bufferView" : 21,
            "componentType" : 5126,
            "count" : 16541,
            "type" : "VEC3"
        },
        {
            "bufferView" : 22,
            "componentType" : 5126,
            "count" : 16541,
            "type" : "VEC2"
        },
        {
            "bufferView" : 23,
            "componentType" : 5126,
            "count" : 16541,
            "type" : "VEC2"
        },
        {
            "bufferView" : 24,
            "componentType" : 5123,
            "count" : 64005,
            "type" : "SCALAR"
        },
        {
            "bufferView" : 25,
            "componentType" : 5126,
            "count" : 16190,
            "max" : [
                -0.07462787628173828,
                8.4097900390625,
                3.4399919509887695
            ],
            "min" : [
                -7.900402069091797,
                -0.17323705554008484,
                -4.547422409057617
            ],
            "type" : "VEC3"
        },
        {
            "bufferView" : 26,
            "componentType" : 5126,
            "count" : 16190,
            "type" : "VEC3"
        },
        {
            "bufferView" : 27,
            "componentType" : 5126,
            "count" : 16190,
            "type" : "VEC2"
        },
        {
            "bufferView" : 28,
            "componentType" : 5126,
            "count" : 16190,
            "type" : "VEC2"
        },
        {
            "bufferView" : 29,
            "componentType" : 5123,
            "count" : 65169,
            "type" : "SCALAR"
        },
        {
            "bufferView" : 30,
            "componentType" : 5126,
            "count" : 26154,
            "max" : [
                7.96211051940918,
                8.629814147949219,
                6.366491317749023
            ],
            "min" : [
                -7.899688720703125,
                -0.17923733592033386,
                -4.578164577484131
            ],
            "type" : "VEC3"
        },
        {
            "bufferView" : 31,
            "componentType" : 5126,
            "count" : 26154,
            "type" : "VEC3"
        },
        {
            "bufferView" : 32,
            "componentType" : 5126,
            "count" : 26154,
            "type" : "VEC2"
        },
        {
            "bufferView" : 33,
            "componentType" : 5126,
            "count" : 26154,
            "type" : "VEC2"
        },
        {
            "bufferView" : 34,
            "componentType" : 5123,
            "count" : 73728,
            "type" : "SCALAR"
        },
        {
            "bufferView" : 35,
            "componentType" : 5126,
            "count" : 29655,
            "max" : [
                8.069421768188477,
                8.85081672668457,
                6.893152713775635
            ],
            "min" : [
                -8.012734413146973,
                -0.18984457850456238,
                -9.145503997802734
            ],
            "type" : "VEC3"
        },
        {
            "bufferView" : 36,
            "componentType" : 5126,
            "count" : 29655,
            "type" : "VEC3"
        },
        {
            "bufferView" : 37,
            "componentType" : 5126,
            "count" : 29655,
            "type" : "VEC2"
        },
        {
            "bufferView" : 38,
            "componentType" : 5126,
            "count" : 29655,
            "type" : "VEC2"
        },
        {
            "bufferView" : 39,
            "componentType" : 5123,
            "count" : 74259,
            "type" : "SCALAR"
        },
        {
            "bufferView" : 40,
            "componentType" : 5126,
            "count" : 30454,
            "max" : [
                -0.7407989501953125,
                6.520023822784424,
                8.022323608398438
            ],
            "min" : [
                -7.894227027893066,
                -0.17323705554008484,
                -4.582581996917725
            ],
            "type" : "VEC3"
        },
        {
            "bufferView" : 41,
            "componentType" : 5126,
            "count" : 30454,
            "type" : "VEC3"
        },
        {
            "bufferView" : 42,
            "componentType" : 5126,
            "count" : 30454,
            "type" : "VEC2"
        },
        {
            "bufferView" : 43,
            "componentType" : 5126,
            "count" : 30454,
            "type" : "VEC2"
        },
        {
            "bufferView" : 44,
            "componentType" : 5123,
            "count" : 67881,
            "type" : "SCALAR"
        },
        {
            "bufferView" : 45,
            "componentType" : 5126,
            "count" : 11828,
            "max" : [
                4.706127166748047,
                9.068831443786621,
                8.01430606842041
            ],
            "min" : [
                -4.5125226974487305,
                -0.18715249001979828,
                -7.760982513427734
            ],
            "type" : "VEC3"
        },
        {
            "bufferView" : 46,
            "componentType" : 5126,
            "count" : 11828,
            "type" : "VEC3"
        },
        {
            "bufferView" : 47,
            "componentType" : 5126,
            "count" : 11828,
            "type" : "VEC2"
        },
        {
            "bufferView" : 48,
            "componentType" : 5126,
            "count" : 11828,
            "type" : "VEC2"
        },
        {
            "bufferView" : 49,
            "componentType" : 5123,
            "count" : 26103,
            "type" : "SCALAR"
        }
    ],
    "bufferViews" : [
        {
            "buffer" : 0,
            "byteLength" : 214224,
            "byteOffset" : 0
        },
        {
            "buffer" : 0,
            "byteLength" : 214224,
            "byteOffset" : 214224
        },
        {
            "buffer" : 0,
            "byteLength" : 142816,
            "byteOffset" : 428448
        },
        {
            "buffer" : 0,
            "byteLength" : 142816,
            "byteOffset" : 571264
        },
        {
            "buffer" : 0,
            "byteLength" : 151776,
            "byteOffset" : 714080
        },
        {
            "buffer" : 0,
            "byteLength" : 202428,
            "byteOffset" : 865856
        },
        {
            "buffer" : 0,
            "byteLength" : 202428,
            "byteOffset" : 1068284
        },
        {
            "buffer" : 0,
            "byteLength" : 134952,
            "byteOffset" : 1270712
        },
        {
            "buffer" : 0,
            "byteLength" : 134952,
            "byteOffset" : 1405664
        },
        {
            "buffer" : 0,
            "byteLength" : 135210,
            "byteOffset" : 1540616
        },
        {
            "buffer" : 0,
            "byteLength" : 209604,
            "byteOffset" : 1675828
        },
        {
            "buffer" : 0,
            "byteLength" : 209604,
            "byteOffset" : 1885432
        },
        {
            "buffer" : 0,
            "byteLength" : 139736,
            "byteOffset" : 2095036
        },
        {
            "buffer" : 0,
            "byteLength" : 139736,
            "byteOffset" : 2234772
        },
        {
            "buffer" : 0,
            "byteLength" : 142044,
            "byteOffset" : 2374508
        },
        {
            "buffer" : 0,
            "byteLength" : 206172,
            "byteOffset" : 2516552
        },
        {
            "buffer" : 0,
            "byteLength" : 206172,
            "byteOffset" : 2722724
        },
        {
            "buffer" : 0,
            "byteLength" : 137448,
            "byteOffset" : 2928896
        },
        {
            "buffer" : 0,
            "byteLength" : 137448,
            "byteOffset" : 3066344
        },
        {
            "buffer" : 0,
            "byteLength" : 133278,
            "byteOffset" : 3203792
        },
        {
            "buffer" : 0,
            "byteLength" : 198492,
            "byteOffset" : 3337072
        },
        {
            "buffer" : 0,
            "byteLength" : 198492,
            "byteOffset" : 3535564
        },
        {
            "buffer" : 0,
            "byteLength" : 132328,
            "byteOffset" : 3734056
        },
        {
            "buffer" : 0,
            "byteLength" : 132328,
            "byteOffset" : 3866384
        },
        {
            "buffer" : 0,
            "byteLength" : 128010,
            "byteOffset" : 3998712
        },
        {
            "buffer" : 0,
            "byteLength" : 194280,
            "byteOffset" : 4126724
        },
        {
            "buffer" : 0,
            "byteLength" : 194280,
            "byteOffset" : 4321004
        },
        {
            "buffer" : 0,
            "byteLength" : 129520,
            "byteOffset" : 4515284
        },
        {
            "buffer" : 0,
            "byteLength" : 129520,
            "byteOffset" : 4644804
        },
        {
            "buffer" : 0,
            "byteLength" : 130338,
            "byteOffset" : 4774324
        },
        {
            "buffer" : 0,
            "byteLength" : 313848,
            "byteOffset" : 4904664
        },
        {
            "buffer" : 0,
            "byteLength" : 313848,
            "byteOffset" : 5218512
        },
        {
            "buffer" : 0,
            "byteLength" : 209232,
            "byteOffset" : 5532360
        },
        {
            "buffer" : 0,
            "byteLength" : 209232,
            "byteOffset" : 5741592
        },
        {
            "buffer" : 0,
            "byteLength" : 147456,
            "byteOffset" : 5950824
        },
        {
            "buffer" : 0,
            "byteLength" : 355860,
            "byteOffset" : 6098280
        },
        {
            "buffer" : 0,
            "byteLength" : 355860,
            "byteOffset" : 6454140
        },
        {
            "buffer" : 0,
            "byteLength" : 237240,
            "byteOffset" : 6810000
        },
        {
            "buffer" : 0,
            "byteLength" : 237240,
            "byteOffset" : 7047240
        },
        {
            "buffer" : 0,
            "byteLength" : 148518,
            "byteOffset" : 7284480
        },
        {
            "buffer" : 0,
            "byteLength" : 365448,
            "byteOffset" : 7433000
        },
        {
            "buffer" : 0,
            "byteLength" : 365448,
            "byteOffset" : 7798448
        },
        {
            "buffer" : 0,
            "byteLength" : 243632,
            "byteOffset" : 8163896
        },
        {
            "buffer" : 0,
            "byteLength" : 243632,
            "byteOffset" : 8407528
        },
        {
            "buffer" : 0,
            "byteLength" : 135762,
            "byteOffset" : 8651160
        },
        {
            "buffer" : 0,
            "byteLength" : 141936,
            "byteOffset" : 8786924
        },
        {
            "buffer" : 0,
            "byteLength" : 141936,
            "byteOffset" : 8928860
        },
        {
            "buffer" : 0,
            "byteLength" : 94624,
            "byteOffset" : 9070796
        },
        {
            "buffer" : 0,
            "byteLength" : 94624,
            "byteOffset" : 9165420
        },
        {
            "buffer" : 0,
            "byteLength" : 52206,
            "byteOffset" : 9260044
        }
    ],
    "samplers" : [
        {
            "magFilter" : 9729,
            "minFilter" : 9987
        }
    ],
    "buffers" : [
        {
            "byteLength" : 9312252,
            "uri" : "decimated_2.bin"
        }
    ]
}
