{
    "asset" : {
        "generator" : "Khronos glTF Blender I/O v1.7.33",
        "version" : "2.0"
    },
    "scene" : 0,
    "scenes" : [
        {
            "name" : "Scene",
            "nodes" : [
                5
            ]
        }
    ],
    "nodes" : [
        {
            "mesh" : 0,
            "name" : "Shell_3BK18_01_3BK18_01_0"
        },
        {
            "children" : [
                0
            ],
            "name" : "Object_7"
        },
        {
            "children" : [
                1
            ],
            "name" : "Shell_3BK18_01"
        },
        {
            "children" : [
                2
            ],
            "name" : "RootNode"
        },
        {
            "children" : [
                3
            ],
            "name" : "86ca756d0c614256acf120f8228ff9d8.fbx"
        },
        {
            "children" : [
                4
            ],
            "name" : "Sketchfab_model.001"
        }
    ],
    "materials" : [
        {
            "doubleSided" : true,
            "name" : "3BK18_01.001",
            "normalTexture" : {
                "index" : 0
            },
            "occlusionTexture" : {
                "index" : 1
            },
            "pbrMetallicRoughness" : {
                "baseColorTexture" : {
                    "index" : 2
                },
                "metallicRoughnessTexture" : {
                    "index" : 1
                }
            }
        }
    ],
    "meshes" : [
        {
            "name" : "Shell_3BK18_01_3BK18_01_0.001",
            "primitives" : [
                {
                    "attributes" : {
                        "POSITION" : 0,
                        "NORMAL" : 1,
                        "TEXCOORD_0" : 2,
                        "COLOR_0" : 3
                    },
                    "indices" : 4,
                    "material" : 0
                }
            ]
        }
    ],
    "textures" : [
        {
            "sampler" : 0,
            "source" : 0
        },
        {
            "sampler" : 0,
            "source" : 1
        },
        {
            "sampler" : 0,
            "source" : 2
        }
    ],
    "images" : [
        {
            "mimeType" : "image/png",
            "name" : "3BK18_01_normal.png",
            "uri" : "textures/3BK18_01_normal.png"
        },
        {
            "mimeType" : "image/png",
            "name" : "3BK18_01_metallicRoughness.png",
            "uri" : "textures/3BK18_01_metallicRoughness.png"
        },
        {
            "mimeType" : "image/png",
            "name" : "3BK18_01_baseColor.png",
            "uri" : "textures/3BK18_01_baseColor.png"
        }
    ],
    "accessors" : [
        {
            "bufferView" : 0,
            "componentType" : 5126,
            "count" : 8407,
            "max" : [
                0.021623466163873672,
                0.021494504064321518,
                0.18557778000831604
            ],
            "min" : [
                -0.021349851042032242,
                -0.021479886025190353,
                -0.06385914981365204
            ],
            "type" : "VEC3"
        },
        {
            "bufferView" : 1,
            "componentType" : 5126,
            "count" : 8407,
            "type" : "VEC3"
        },
        {
            "bufferView" : 2,
            "componentType" : 5126,
            "count" : 8407,
            "type" : "VEC2"
        },
        {
            "bufferView" : 3,
            "componentType" : 5123,
            "count" : 8407,
            "normalized" : true,
            "type" : "VEC4"
        },
        {
            "bufferView" : 4,
            "componentType" : 5123,
            "count" : 19650,
            "type" : "SCALAR"
        }
    ],
    "bufferViews" : [
        {
            "buffer" : 0,
            "byteLength" : 100884,
            "byteOffset" : 0
        },
        {
            "buffer" : 0,
            "byteLength" : 100884,
            "byteOffset" : 100884
        },
        {
            "buffer" : 0,
            "byteLength" : 67256,
            "byteOffset" : 201768
        },
        {
            "buffer" : 0,
            "byteLength" : 67256,
            "byteOffset" : 269024
        },
        {
            "buffer" : 0,
            "byteLength" : 39300,
            "byteOffset" : 336280
        }
    ],
    "samplers" : [
        {
            "magFilter" : 9729,
            "minFilter" : 9987
        }
    ],
    "buffers" : [
        {
            "byteLength" : 375580,
            "uri" : "transformed_2.bin"
        }
    ]
}
