{
    "asset" : {
        "generator" : "Khronos glTF Blender I/O v1.7.33",
        "version" : "2.0"
    },
    "scene" : 0,
    "scenes" : [
        {
            "name" : "Scene",
            "nodes" : [
                4
            ]
        }
    ],
    "nodes" : [
        {
            "mesh" : 0,
            "name" : "defaultMaterial.001"
        },
        {
            "mesh" : 1,
            "name" : "defaultMaterial.002"
        },
        {
            "children" : [
                0,
                1
            ],
            "name" : "wheels"
        },
        {
            "children" : [
                2
            ],
            "name" : "Collada visual scene group"
        },
        {
            "children" : [
                3
            ],
            "name" : "Sketchfab_model"
        }
    ],
    "materials" : [
        {
            "name" : "wheels.007",
            "normalTexture" : {
                "index" : 0
            },
            "occlusionTexture" : {
                "index" : 1
            },
            "pbrMetallicRoughness" : {
                "baseColorTexture" : {
                    "index" : 2
                },
                "metallicRoughnessTexture" : {
                    "index" : 1
                }
            }
        }
    ],
    "meshes" : [
        {
            "name" : "defaultMaterial.104",
            "primitives" : [
                {
                    "attributes" : {
                        "POSITION" : 0,
                        "NORMAL" : 1,
                        "TEXCOORD_0" : 2
                    },
                    "indices" : 3,
                    "material" : 0
                }
            ]
        },
        {
            "name" : "defaultMaterial.105",
            "primitives" : [
                {
                    "attributes" : {
                        "POSITION" : 4,
                        "NORMAL" : 5,
                        "TEXCOORD_0" : 6
                    },
                    "indices" : 7,
                    "material" : 0
                }
            ]
        }
    ],
    "textures" : [
        {
            "sampler" : 0,
            "source" : 0
        },
        {
            "sampler" : 0,
            "source" : 1
        },
        {
            "sampler" : 0,
            "source" : 2
        }
    ],
    "images" : [
        {
            "mimeType" : "image/jpeg",
            "name" : "wheels_normal.jpeg",
            "uri" : "textures/wheels_normal.jpeg"
        },
        {
            "mimeType" : "image/png",
            "name" : "wheels_metallicRoughness.png",
            "uri" : "textures/wheels_metallicRoughness.png"
        },
        {
            "mimeType" : "image/jpeg",
            "name" : "wheels_baseColor.jpeg",
            "uri" : "textures/wheels_baseColor.jpeg"
        }
    ],
    "accessors" : [
        {
            "bufferView" : 0,
            "componentType" : 5126,
            "count" : 5252,
            "max" : [
                0.26991400122642517,
                -0.17236100137233734,
                -0.3283360004425049
            ],
            "min" : [
                0.17174600064754486,
                -0.28011301159858704,
                -0.4360879957675934
            ],
            "type" : "VEC3"
        },
        {
            "bufferView" : 1,
            "componentType" : 5126,
            "count" : 5252,
            "type" : "VEC3"
        },
        {
            "bufferView" : 2,
            "componentType" : 5126,
            "count" : 5252,
            "type" : "VEC2"
        },
        {
            "bufferView" : 3,
            "componentType" : 5123,
            "count" : 12909,
            "type" : "SCALAR"
        },
        {
            "bufferView" : 4,
            "componentType" : 5126,
            "count" : 5230,
            "max" : [
                -0.17174600064754486,
                -0.17236100137233734,
                -0.3283360004425049
            ],
            "min" : [
                -0.26991400122642517,
                -0.28011301159858704,
                -0.4360879957675934
            ],
            "type" : "VEC3"
        },
        {
            "bufferView" : 5,
            "componentType" : 5126,
            "count" : 5230,
            "type" : "VEC3"
        },
        {
            "bufferView" : 6,
            "componentType" : 5126,
            "count" : 5230,
            "type" : "VEC2"
        },
        {
            "bufferView" : 7,
            "componentType" : 5123,
            "count" : 12909,
            "type" : "SCALAR"
        }
    ],
    "bufferViews" : [
        {
            "buffer" : 0,
            "byteLength" : 63024,
            "byteOffset" : 0
        },
        {
            "buffer" : 0,
            "byteLength" : 63024,
            "byteOffset" : 63024
        },
        {
            "buffer" : 0,
            "byteLength" : 42016,
            "byteOffset" : 126048
        },
        {
            "buffer" : 0,
            "byteLength" : 25818,
            "byteOffset" : 168064
        },
        {
            "buffer" : 0,
            "byteLength" : 62760,
            "byteOffset" : 193884
        },
        {
            "buffer" : 0,
            "byteLength" : 62760,
            "byteOffset" : 256644
        },
        {
            "buffer" : 0,
            "byteLength" : 41840,
            "byteOffset" : 319404
        },
        {
            "buffer" : 0,
            "byteLength" : 25818,
            "byteOffset" : 361244
        }
    ],
    "samplers" : [
        {
            "magFilter" : 9729,
            "minFilter" : 9987
        }
    ],
    "buffers" : [
        {
            "byteLength" : 387064,
            "uri" : "medium_wheels_5.bin"
        }
    ]
}
