{
    "asset" : {
        "generator" : "Khronos glTF Blender I/O v1.7.33",
        "version" : "2.0"
    },
    "scene" : 0,
    "scenes" : [
        {
            "name" : "Scene",
            "nodes" : [
                6
            ]
        }
    ],
    "nodes" : [
        {
            "name" : "defaultMaterial.001"
        },
        {
            "name" : "defaultMaterial.002"
        },
        {
            "mesh" : 0,
            "name" : "defaultMaterial.003"
        },
        {
            "name" : "defaultMaterial.004"
        },
        {
            "children" : [
                0,
                1,
                2,
                3
            ],
            "name" : "tracks"
        },
        {
            "children" : [
                4
            ],
            "name" : "Collada visual scene group"
        },
        {
            "children" : [
                5
            ],
            "name" : "Sketchfab_model"
        }
    ],
    "materials" : [
        {
            "name" : "track.001",
            "normalTexture" : {
                "index" : 0
            },
            "occlusionTexture" : {
                "index" : 1
            },
            "pbrMetallicRoughness" : {
                "baseColorTexture" : {
                    "index" : 2
                },
                "metallicRoughnessTexture" : {
                    "index" : 1
                }
            }
        }
    ],
    "meshes" : [
        {
            "name" : "defaultMaterial.009",
            "primitives" : [
                {
                    "attributes" : {
                        "POSITION" : 0,
                        "NORMAL" : 1,
                        "TEXCOORD_0" : 2
                    },
                    "indices" : 3,
                    "material" : 0
                }
            ]
        }
    ],
    "textures" : [
        {
            "sampler" : 0,
            "source" : 0
        },
        {
            "sampler" : 0,
            "source" : 1
        },
        {
            "sampler" : 0,
            "source" : 2
        }
    ],
    "images" : [
        {
            "mimeType" : "image/jpeg",
            "name" : "track_normal.jpeg",
            "uri" : "textures/track_normal.jpeg"
        },
        {
            "mimeType" : "image/png",
            "name" : "track_metallicRoughness.png",
            "uri" : "textures/track_metallicRoughness.png"
        },
        {
            "mimeType" : "image/jpeg",
            "name" : "track_baseColor.jpeg",
            "uri" : "textures/track_baseColor.jpeg"
        }
    ],
    "accessors" : [
        {
            "bufferView" : 0,
            "componentType" : 5126,
            "count" : 1440,
            "max" : [
                0.29408299922943115,
                -0.2575570046901703,
                0.03821520134806633
            ],
            "min" : [
                0.16863200068473816,
                -0.2910049855709076,
                -0.0009909089421853423
            ],
            "type" : "VEC3"
        },
        {
            "bufferView" : 1,
            "componentType" : 5126,
            "count" : 1440,
            "type" : "VEC3"
        },
        {
            "bufferView" : 2,
            "componentType" : 5126,
            "count" : 1440,
            "type" : "VEC2"
        },
        {
            "bufferView" : 3,
            "componentType" : 5123,
            "count" : 6258,
            "type" : "SCALAR"
        }
    ],
    "bufferViews" : [
        {
            "buffer" : 0,
            "byteLength" : 17280,
            "byteOffset" : 0
        },
        {
            "buffer" : 0,
            "byteLength" : 17280,
            "byteOffset" : 17280
        },
        {
            "buffer" : 0,
            "byteLength" : 11520,
            "byteOffset" : 34560
        },
        {
            "buffer" : 0,
            "byteLength" : 12516,
            "byteOffset" : 46080
        }
    ],
    "samplers" : [
        {
            "magFilter" : 9729,
            "minFilter" : 9987
        }
    ],
    "buffers" : [
        {
            "byteLength" : 58596,
            "uri" : "single_track.bin"
        }
    ]
}
