{
    "asset" : {
        "generator" : "Khronos glTF Blender I/O v1.7.33",
        "version" : "2.0"
    },
    "scene" : 0,
    "scenes" : [
        {
            "name" : "Scene",
            "nodes" : [
                4
            ]
        }
    ],
    "nodes" : [
        {
            "mesh" : 0,
            "name" : "defaultMaterial.001"
        },
        {
            "mesh" : 1,
            "name" : "defaultMaterial.002"
        },
        {
            "children" : [
                0,
                1
            ],
            "name" : "wheels"
        },
        {
            "children" : [
                2
            ],
            "name" : "Collada visual scene group"
        },
        {
            "children" : [
                3
            ],
            "name" : "Sketchfab_model"
        }
    ],
    "materials" : [
        {
            "name" : "wheels.004",
            "normalTexture" : {
                "index" : 0
            },
            "occlusionTexture" : {
                "index" : 1
            },
            "pbrMetallicRoughness" : {
                "baseColorTexture" : {
                    "index" : 2
                },
                "metallicRoughnessTexture" : {
                    "index" : 1
                }
            }
        }
    ],
    "meshes" : [
        {
            "name" : "defaultMaterial.028",
            "primitives" : [
                {
                    "attributes" : {
                        "POSITION" : 0,
                        "NORMAL" : 1,
                        "TEXCOORD_0" : 2
                    },
                    "indices" : 3,
                    "material" : 0
                }
            ]
        },
        {
            "name" : "defaultMaterial.038",
            "primitives" : [
                {
                    "attributes" : {
                        "POSITION" : 4,
                        "NORMAL" : 5,
                        "TEXCOORD_0" : 6
                    },
                    "indices" : 7,
                    "material" : 0
                }
            ]
        }
    ],
    "textures" : [
        {
            "sampler" : 0,
            "source" : 0
        },
        {
            "sampler" : 0,
            "source" : 1
        },
        {
            "sampler" : 0,
            "source" : 2
        }
    ],
    "images" : [
        {
            "mimeType" : "image/jpeg",
            "name" : "wheels_normal.jpeg",
            "uri" : "textures/wheels_normal.jpeg"
        },
        {
            "mimeType" : "image/png",
            "name" : "wheels_metallicRoughness.png",
            "uri" : "textures/wheels_metallicRoughness.png"
        },
        {
            "mimeType" : "image/jpeg",
            "name" : "wheels_baseColor.jpeg",
            "uri" : "textures/wheels_baseColor.jpeg"
        }
    ],
    "accessors" : [
        {
            "bufferView" : 0,
            "componentType" : 5126,
            "count" : 53,
            "max" : [
                0.2547230124473572,
                -0.07891509681940079,
                0.3079429864883423
            ],
            "min" : [
                0.2394140064716339,
                -0.14894999563694,
                0.2379080057144165
            ],
            "type" : "VEC3"
        },
        {
            "bufferView" : 1,
            "componentType" : 5126,
            "count" : 53,
            "type" : "VEC3"
        },
        {
            "bufferView" : 2,
            "componentType" : 5126,
            "count" : 53,
            "type" : "VEC2"
        },
        {
            "bufferView" : 3,
            "componentType" : 5123,
            "count" : 147,
            "type" : "SCALAR"
        },
        {
            "bufferView" : 4,
            "componentType" : 5126,
            "count" : 5163,
            "max" : [
                0.2547230124473572,
                -0.07891509681940079,
                0.3079429864883423
            ],
            "min" : [
                -0.2547230124473572,
                -0.14894999563694,
                0.2379080057144165
            ],
            "type" : "VEC3"
        },
        {
            "bufferView" : 5,
            "componentType" : 5126,
            "count" : 5163,
            "type" : "VEC3"
        },
        {
            "bufferView" : 6,
            "componentType" : 5126,
            "count" : 5163,
            "type" : "VEC2"
        },
        {
            "bufferView" : 7,
            "componentType" : 5123,
            "count" : 14541,
            "type" : "SCALAR"
        }
    ],
    "bufferViews" : [
        {
            "buffer" : 0,
            "byteLength" : 636,
            "byteOffset" : 0
        },
        {
            "buffer" : 0,
            "byteLength" : 636,
            "byteOffset" : 636
        },
        {
            "buffer" : 0,
            "byteLength" : 424,
            "byteOffset" : 1272
        },
        {
            "buffer" : 0,
            "byteLength" : 294,
            "byteOffset" : 1696
        },
        {
            "buffer" : 0,
            "byteLength" : 61956,
            "byteOffset" : 1992
        },
        {
            "buffer" : 0,
            "byteLength" : 61956,
            "byteOffset" : 63948
        },
        {
            "buffer" : 0,
            "byteLength" : 41304,
            "byteOffset" : 125904
        },
        {
            "buffer" : 0,
            "byteLength" : 29082,
            "byteOffset" : 167208
        }
    ],
    "samplers" : [
        {
            "magFilter" : 9729,
            "minFilter" : 9987
        }
    ],
    "buffers" : [
        {
            "byteLength" : 196292,
            "uri" : "small_wheels_2.bin"
        }
    ]
}
