{
    "asset" : {
        "generator" : "Khronos glTF Blender I/O v1.7.33",
        "version" : "2.0"
    },
    "scene" : 0,
    "scenes" : [
        {
            "name" : "Scene",
            "nodes" : [
                3
            ]
        }
    ],
    "nodes" : [
        {
            "mesh" : 0,
            "name" : "defaultMaterial.001"
        },
        {
            "children" : [
                0
            ],
            "name" : "wheels"
        },
        {
            "children" : [
                1
            ],
            "name" : "Collada visual scene group"
        },
        {
            "children" : [
                2
            ],
            "name" : "Sketchfab_model"
        }
    ],
    "materials" : [
        {
            "name" : "wheels.002",
            "normalTexture" : {
                "index" : 0
            },
            "occlusionTexture" : {
                "index" : 1
            },
            "pbrMetallicRoughness" : {
                "baseColorTexture" : {
                    "index" : 2
                },
                "metallicRoughnessTexture" : {
                    "index" : 1
                }
            }
        }
    ],
    "meshes" : [
        {
            "name" : "defaultMaterial.021",
            "primitives" : [
                {
                    "attributes" : {
                        "POSITION" : 0,
                        "NORMAL" : 1,
                        "TEXCOORD_0" : 2
                    },
                    "indices" : 3,
                    "material" : 0
                }
            ]
        }
    ],
    "textures" : [
        {
            "sampler" : 0,
            "source" : 0
        },
        {
            "sampler" : 0,
            "source" : 1
        },
        {
            "sampler" : 0,
            "source" : 2
        }
    ],
    "images" : [
        {
            "mimeType" : "image/jpeg",
            "name" : "wheels_normal.jpeg",
            "uri" : "textures/wheels_normal.jpeg"
        },
        {
            "mimeType" : "image/png",
            "name" : "wheels_metallicRoughness.png",
            "uri" : "textures/wheels_metallicRoughness.png"
        },
        {
            "mimeType" : "image/jpeg",
            "name" : "wheels_baseColor.jpeg",
            "uri" : "textures/wheels_baseColor.jpeg"
        }
    ],
    "accessors" : [
        {
            "bufferView" : 0,
            "componentType" : 5126,
            "count" : 5258,
            "max" : [
                0.2547230124473572,
                -0.07891509681940079,
                -0.01617239974439144
            ],
            "min" : [
                -0.2547230124473572,
                -0.14894999563694,
                -0.0862073004245758
            ],
            "type" : "VEC3"
        },
        {
            "bufferView" : 1,
            "componentType" : 5126,
            "count" : 5258,
            "type" : "VEC3"
        },
        {
            "bufferView" : 2,
            "componentType" : 5126,
            "count" : 5258,
            "type" : "VEC2"
        },
        {
            "bufferView" : 3,
            "componentType" : 5123,
            "count" : 14688,
            "type" : "SCALAR"
        }
    ],
    "bufferViews" : [
        {
            "buffer" : 0,
            "byteLength" : 63096,
            "byteOffset" : 0
        },
        {
            "buffer" : 0,
            "byteLength" : 63096,
            "byteOffset" : 63096
        },
        {
            "buffer" : 0,
            "byteLength" : 42064,
            "byteOffset" : 126192
        },
        {
            "buffer" : 0,
            "byteLength" : 29376,
            "byteOffset" : 168256
        }
    ],
    "samplers" : [
        {
            "magFilter" : 9729,
            "minFilter" : 9987
        }
    ],
    "buffers" : [
        {
            "byteLength" : 197632,
            "uri" : "small_wheels_1.bin"
        }
    ]
}
